<svg id="Capa_1" enable-background="new 0 0 512 512" height="512" viewBox="0 0 512 512" width="512" xmlns="http://www.w3.org/2000/svg"><g><path d="m30 76h452v330h-452z" fill="#53433f"/><path d="m256 76h226v330h-226z" fill="#3e322e"/><path d="m60 106h392v300h-392z" fill="#ede9e8"/><path d="m256 106h196v300h-196z" fill="#dfd7d5"/><path d="m279.291 227.582v56.836l81.709 40.854v-138.544z" fill="#53433f"/><path d="m90 136h60v30h-60z" fill="#ff6c6c"/><path d="m512 376v15c0 24.899-20.099 45-45 45h-422c-24.901 0-45-20.101-45-45v-15z" fill="#68544f"/><path d="m512 376v15c0 24.899-20.099 45-45 45h-211v-60z" fill="#53433f"/><path d="m150 196v120h151v-120z" fill="#25d9f8"/><path d="m256 196h45v120h-45z" fill="#00c0f1"/></g></svg>