<svg height="512" viewBox="0 0 512 512" width="512" xmlns="http://www.w3.org/2000/svg"><g><path d="m476 72h-440a19.994 19.994 0 0 0 -20 20v328a19.994 19.994 0 0 0 20 20h440a19.994 19.994 0 0 0 20-20v-328a19.994 19.994 0 0 0 -20-20zm-220 248a96 96 0 1 1 96-96 96 96 0 0 1 -96 96z" fill="#57a4ff"/><path d="m224 272 80-48-80-48z" fill="#57a4ff"/><g fill="#004fac"><path d="m476 64h-440a28.031 28.031 0 0 0 -28 28v328a28.031 28.031 0 0 0 28 28h440a28.031 28.031 0 0 0 28-28v-328a28.031 28.031 0 0 0 -28-28zm12 356a12.01 12.01 0 0 1 -12 12h-440a12.01 12.01 0 0 1 -12-12v-328a12.01 12.01 0 0 1 12-12h440a12.01 12.01 0 0 1 12 12z"/><path d="m220.059 278.962a8 8 0 0 0 8.057-.1l80-48a8 8 0 0 0 0-13.72l-80-48a8 8 0 0 0 -12.116 6.858v96a8 8 0 0 0 4.059 6.962zm11.941-88.832 56.451 33.87-56.451 33.87z"/><path d="m256 328a104 104 0 1 0 -104-104 104.118 104.118 0 0 0 104 104zm0-192a88 88 0 1 1 -88 88 88.1 88.1 0 0 1 88-88z"/><path d="m384 376a8 8 0 0 1 -8 8h-200a8 8 0 0 1 -16 0h-24a8 8 0 0 1 0-16h24a8 8 0 0 1 16 0h200a8 8 0 0 1 8 8z"/></g></g></svg>